<?xml version="1.0" encoding="utf-8"?>
<!-- Generator: Adobe Illustrator 18.1.0, SVG Export Plug-In . SVG Version: 6.00 Build 0)  -->
<svg version="1.1" id="Layer_1" xmlns="http://www.w3.org/2000/svg" xmlns:xlink="http://www.w3.org/1999/xlink" x="0px" y="0px"
	 width="200px" height="44px" viewBox="10 -2 200 44" enable-background="new 10 -2 200 44" xml:space="preserve">
<g id="Layer_2">
	<g>
		<path fill="#F16A24" d="M28.4,10c0,2.2-1.8,4-3.9,4c-2.2,0-3.9-1.8-3.9-4s1.8-4,3.9-4C26.7,6,28.4,7.7,28.4,10"/>
		<path fill="#F16A24" d="M18.8,26.4c0,2.2-1.8,4-3.9,4c-2.2,0-3.9-1.8-3.9-4s1.8-4,3.9-4S18.8,24.1,18.8,26.4"/>
		<path fill="#F16A24" d="M38.3,26.4c0,2.2-1.8,4-3.9,4c-2.2,0-3.9-1.8-3.9-4s1.8-4,3.9-4C36.5,22.3,38.3,24.1,38.3,26.4"/>
		<path fill="#495965" d="M52.6,23.1h-2.2v6.8h-3.3V11.7h6.7c4.1,0,6,2.7,6,5.6c0,2.2-1.1,4.4-3.8,5.2l4.5,7.1h-3.9L52.6,23.1z
			 M50.3,20.1h3c2.2,0,3-1.3,3-2.6c0-1.4-0.9-2.6-2.6-2.6h-3.4V20.1z"/>
		<polygon fill="#495965" points="68.4,11.7 80.5,11.7 80.5,14.9 71.7,14.9 71.7,19.1 79.8,19.1 79.8,22.3 71.7,22.3 71.7,26.8 
			80.5,26.8 80.5,30 68.4,30 		"/>
		<path fill="#495965" d="M98.4,25.9H92L90.5,30H87l7-18.2h2.6l6.9,18.2H100L98.4,25.9z M92.9,22.8h4.5l-2.2-6.2L92.9,22.8z"/>
		<polygon fill="#495965" points="110.6,11.7 113.9,11.7 113.9,26.8 123.3,26.8 123.3,30 110.6,30 		"/>
		<path fill="#495965" d="M143.4,17.5c0,3-1.9,5.8-6.5,5.8h-3v6.4h-3.3V11.5h6.5C141.6,11.7,143.4,14.6,143.4,17.5 M139.8,17.5
			c0-1.4-1-2.7-2.8-2.7h-3.3v5.5h3C138.9,20.4,139.8,18.9,139.8,17.5"/>
		<path fill="#495965" d="M158.5,25.8h-6.4l-1.5,4.1h-3.5l7-18.2h2.6l6.9,18.2H160L158.5,25.8z M152.9,22.7h4.5l-2.2-6.2L152.9,22.7
			z"/>
		<path fill="#495965" d="M167.6,20.8c0-5.5,4.2-9.5,9.7-9.5c3,0,5.8,1.3,7.3,3l-2.2,2.3c-1.3-1.3-3.1-2.1-5.1-2.1
			c-3.5,0-6.1,2.6-6.1,6.1c0,3.4,2.5,6.1,6,6.1c2,0,3.9-0.9,5-2.1V22H177v-2.9h8.4v7.3c-2.2,2.3-5.1,3.6-8.3,3.6
			C171.6,30.2,167.6,26.2,167.6,20.8"/>
		<polygon fill="#495965" points="192.6,11.7 204.8,11.7 204.8,14.8 195.9,14.8 195.9,19 204.1,19 204.1,22.2 195.9,22.2 
			195.9,26.8 204.8,26.8 204.8,29.9 192.6,29.9 		"/>
		<path fill="#495965" d="M207.8,11.8c0.8,0,1.4,0.6,1.4,1.4s-0.6,1.4-1.4,1.4s-1.4-0.6-1.4-1.4S207,11.8,207.8,11.8L207.8,11.8z
			 M207.8,12.1c-0.6,0-1.1,0.5-1.1,1.1s0.5,1.1,1.1,1.1s1.1-0.5,1.1-1.1S208.4,12.1,207.8,12.1L207.8,12.1z M207.6,13.9h-0.3v-1.4
			c0.1,0,0.3,0,0.5,0c0.3,0,0.4,0,0.5,0.1s0.1,0.2,0.1,0.3c0,0.2-0.1,0.3-0.3,0.3l0,0c0.1,0,0.2,0.2,0.2,0.3c0,0.2,0.1,0.3,0.1,0.3
			h-0.3c0-0.1-0.1-0.2-0.1-0.3s-0.1-0.2-0.3-0.2h-0.2v0.6L207.6,13.9L207.6,13.9z M207.6,13.1h0.2c0.2,0,0.3-0.1,0.3-0.2
			s-0.1-0.2-0.3-0.2c-0.1,0-0.1,0-0.2,0V13.1z"/>
	</g>
</g>
</svg>
